<?xml version="1.0" standalone="no"?><!DOCTYPE svg PUBLIC "-//W3C//DTD SVG 1.1//EN" "http://www.w3.org/Graphics/SVG/1.1/DTD/svg11.dtd"><svg t="1646755430811" class="icon" viewBox="0 0 1024 1024" version="1.1" xmlns="http://www.w3.org/2000/svg" p-id="6001" xmlns:xlink="http://www.w3.org/1999/xlink" width="200" height="200"><defs><style type="text/css"></style></defs><path d="M826.548 241.447a28.398 28.398 0 0 0-26.939-2.228l-129.368 56.779c-9.426-23.737-24.34-59.418-42.162-95.468-46.726-94.513-85.317-136.661-125.128-136.661-40.566 0-76.891 42.581-117.782 138.067-15.194 35.479-27.596 70.601-35.489 94.368L205.387 238.84a28.393 28.393 0 0 0-38.898 26.378v176.896c0 89.873 34.998 174.365 98.548 237.915 56.808 56.809 130.358 90.778 209.521 97.35v148.587c0 15.682 12.712 28.393 28.393 28.393s28.393-12.712 28.393-28.393V777.38c79.163-6.572 152.713-40.541 209.521-97.35 63.55-63.55 98.548-148.043 98.548-237.915V265.219a28.39 28.39 0 0 0-12.865-23.772z m-43.921 200.667c0 154.214-125.462 279.676-279.676 279.676S223.275 596.328 223.275 442.114V307.088l133.724 53.254a28.381 28.381 0 0 0 22.903-0.836 28.4 28.4 0 0 0 14.826-17.478c0.167-0.564 16.981-57.018 40.969-113.801 40.633-96.188 64.484-106.597 67.295-107.513 2.931 0.84 28.008 10.689 75.726 108.12 27.996 57.163 48.768 114.233 48.973 114.799a28.396 28.396 0 0 0 38.108 16.33l116.828-51.275v133.426z" fill="#E75934" p-id="6002"></path><path d="M417.771 824.007c-58.299 0-114.159-17.753-161.539-51.34-12.793-9.068-30.515-6.049-39.584 6.743-9.068 12.794-6.05 30.516 6.743 39.584 57.034 40.429 124.249 61.799 194.38 61.799 15.682 0 28.393-12.712 28.393-28.393s-12.712-28.393-28.393-28.393zM749.17 772.667c-47.38 33.587-103.24 51.34-161.539 51.34-15.682 0-28.393 12.712-28.393 28.393s12.712 28.393 28.393 28.393c70.131 0 137.346-21.37 194.38-61.799 12.792-9.068 15.812-26.791 6.743-39.584-9.066-12.79-26.787-15.81-39.584-6.743z" fill="#E75934" p-id="6003"></path></svg>