<?xml version="1.0" standalone="no"?><!DOCTYPE svg PUBLIC "-//W3C//DTD SVG 1.1//EN" "http://www.w3.org/Graphics/SVG/1.1/DTD/svg11.dtd"><svg t="1646742762685" class="icon" viewBox="0 0 1024 1024" version="1.1" xmlns="http://www.w3.org/2000/svg" p-id="2736" xmlns:xlink="http://www.w3.org/1999/xlink" width="200" height="200"><defs><style type="text/css"></style></defs><path d="M870.4 128H153.6C102.4 128 64 166.4 64 217.6v588.8c0 51.2 38.4 89.6 89.6 89.6h716.8c51.2 0 89.6-38.4 89.6-89.6V217.6c0-51.2-38.4-89.6-89.6-89.6zM153.6 192h716.8c12.8 0 25.6 12.8 25.6 25.6v339.2l-185.6-140.8c-19.2-19.2-51.2-12.8-70.4 6.4l-204.8 192-102.4-121.6c-12.8-12.8-25.6-19.2-44.8-19.2-19.2 0-32 6.4-44.8 25.6L128 646.4V217.6c0-12.8 12.8-25.6 25.6-25.6zM128 806.4v-70.4l160-211.2h6.4l256 300.8H153.6c-12.8 6.4-25.6-6.4-25.6-19.2z m742.4 25.6h-256l-147.2-179.2 198.4-198.4h12.8L896 614.4v192c0 12.8-12.8 25.6-25.6 25.6z" fill="#8a8a8a" p-id="2737"></path></svg>